<svg id="Layer_1" data-name="Layer 1" xmlns="http://www.w3.org/2000/svg" xmlns:xlink="http://www.w3.org/1999/xlink" viewBox="0 0 434.82 116.33"><defs><style>.cls-1,.cls-10,.cls-11,.cls-12,.cls-13,.cls-14,.cls-3,.cls-6,.cls-7{fill:none;}.cls-1,.cls-10,.cls-11,.cls-12,.cls-13,.cls-14{stroke:#231f20;}.cls-1,.cls-3,.cls-6,.cls-7{stroke-width:2px;}.cls-2,.cls-9{fill:#231f20;}.cls-3{stroke:#aadcd9;}.cls-4{fill:#282828;}.cls-5,.cls-9{font-size:12px;font-family:xkcdScript, xkcd Script;}.cls-5{fill:#fff;}.cls-6{stroke:#f598a2;}.cls-7{stroke:url(#New_Gradient_Swatch);}.cls-8{fill:#e6e7e8;}.cls-11{stroke-dasharray:1.82 1.82;}.cls-12{stroke-dasharray:1.81 1.81;}.cls-13{stroke-dasharray:1.82 1.82;}.cls-14{stroke-dasharray:1.82 1.82;}</style><linearGradient id="New_Gradient_Swatch" x1="105.93" y1="92.28" x2="193.81" y2="92.28" gradientUnits="userSpaceOnUse"><stop offset="0.49" stop-color="#f598a2"/><stop offset="0.5" stop-color="#abddda"/></linearGradient></defs><polyline class="cls-1" points="73.52 30.7 84.94 43.3 100.86 49.29 112.27 61.89 128.2 67.88 130.14 70.03"/><polygon class="cls-2" points="139.63 80.49 120.24 71.21 129.43 69.24 132.29 60.29 139.63 80.49"/><polyline class="cls-1" points="230.83 34.01 214.91 39.99 203.49 52.6 187.57 58.58 176.15 71.19 173.44 72.21"/><polygon class="cls-2" points="160.22 77.18 175.98 62.56 174.43 71.84 181.71 77.78 160.22 77.18"/><polygon class="cls-3" points="15.14 31.62 22.14 31.93 29.27 32.15 36.39 31.67 43.52 32.19 50.64 31.62 57.77 31.56 64.89 31.88 72.02 31.27 79.14 31.35 86.27 32.11 93.4 31.24 100.52 31.25 107.65 32.01 114.77 32 121.9 31.72 129.04 31.44 136.35 31.89 136.33 23.86 136.44 15.98 136.43 7.87 129.05 7.61 121.92 8.59 114.8 8.34 107.67 8.45 100.55 8.31 93.42 7.83 86.3 8.1 79.17 7.86 72.05 8.31 64.92 8.18 57.8 7.97 50.67 8.2 43.54 8.23 36.42 8.33 29.29 8.16 22.15 7.81 15.2 8.27 15.46 15.97 14.71 23.85 15.14 31.62"/><polygon class="cls-4" points="17.1 29.64 24.34 29.85 31.66 29.78 38.98 29.95 46.3 29.5 53.62 29.47 60.94 29.76 68.26 30.23 75.58 30.17 82.9 29.67 90.22 29.59 97.55 30.23 104.87 30.17 112.19 29.59 119.52 29.24 126.84 29.42 134.1 29.65 133.81 23.19 134.18 16.65 133.95 10.35 126.85 9.88 119.53 9.82 112.21 9.89 104.89 10.44 97.57 9.74 90.25 10.45 82.93 9.82 75.61 9.91 68.29 10.16 60.97 10.53 53.65 10.12 46.32 10.07 39 10.21 31.68 9.83 24.35 9.98 17.03 10.11 17.14 16.64 16.89 23.19 17.1 29.64"/><text class="cls-5" transform="translate(20.02 22.94)">Latent gene variables</text><polygon class="cls-6" points="162.74 31.54 169.55 31.28 176.56 31.62 183.58 31.7 190.59 32.19 197.6 32.22 204.62 31.87 211.63 31.58 218.65 31.98 225.67 31.67 232.68 32.16 239.7 31.69 246.71 31.86 253.73 31.72 260.74 31.59 267.76 31.77 274.77 31.91 281.79 31.69 288.82 31.73 295.67 31.58 295.34 23.86 295.81 15.98 295.92 8.03 288.83 8.4 281.82 8.19 274.8 7.8 267.79 7.87 260.77 7.97 253.76 8.28 246.74 8.56 239.73 8.41 232.71 8.05 225.69 7.9 218.68 7.92 211.67 7.78 204.65 7.84 197.63 7.98 190.62 8.46 183.6 8.17 176.58 8.44 169.56 8.21 162.16 7.77 162.95 15.97 162.55 23.85 162.74 31.54"/><polygon class="cls-4" points="164.63 29.62 171.72 29.77 178.9 29.91 186.08 29.69 193.26 29.73 200.44 29.5 207.63 29.23 214.81 29.7 221.99 29.84 229.18 29.43 236.36 29.64 243.54 30.03 250.72 29.96 257.9 29.86 265.09 29.56 272.27 29.27 279.46 29.43 286.65 29.78 293.98 29.88 294.02 23.19 294.17 16.65 294.02 9.91 286.66 9.98 279.48 10.46 272.3 10.17 265.12 10.44 257.93 10.21 250.75 9.61 243.57 10.52 236.38 10.12 229.2 9.89 222.02 10.3 214.84 10.08 207.66 10.32 200.47 9.75 193.29 9.83 186.11 10.32 178.92 9.95 171.73 10.37 164.32 9.87 164.11 16.64 164.64 23.18 164.63 29.62"/><text class="cls-5" transform="translate(167.53 22.94)">Latent cellular variables</text><polygon class="cls-7" points="107.28 104.07 114.37 103.61 121.47 104.5 128.57 104.58 135.67 104.01 142.77 103.88 149.87 104.09 156.97 103.89 164.07 104.47 171.17 103.59 178.28 103.87 185.39 103.85 192.79 104.35 192.59 96.21 192.6 88.33 192.47 80.48 185.4 80.84 178.29 80.15 171.19 80.38 164.09 80.06 157 80.78 149.9 80.89 142.79 79.98 135.69 80.17 128.59 80.33 121.49 80.67 114.38 80.34 107 80.21 107.57 88.33 107.48 96.2 107.28 104.07"/><polygon class="cls-8" points="109.2 102.16 116.65 102.05 124.04 101.7 131.42 102.39 138.8 102.16 146.18 102.48 153.56 101.76 160.95 101.65 168.33 102.55 175.72 102.37 183.11 102.21 190.36 101.92 190.61 95.54 190.86 89 190.3 82.68 183.11 82.66 175.73 82.39 168.35 82.2 160.97 82.73 153.59 82.43 146.2 82.23 138.82 82.88 131.43 82.3 124.05 82.9 116.66 82.71 109 82.15 108.95 89 109.31 95.54 109.2 102.16"/><text class="cls-9" transform="translate(112.27 95.3)">Transcriptome</text><text class="cls-9" transform="translate(334.41 19.09)">- Differentiation<tspan x="0" y="14.4">- Cell cycle</tspan><tspan x="0" y="28.8">- Cell type</tspan><tspan x="0" y="43.2">- Zonation</tspan><tspan x="0" y="57.6">- Cell state</tspan><tspan x="0" y="72">...</tspan></text><line class="cls-10" x1="296.89" y1="17.12" x2="297.63" y2="17.79"/><line class="cls-11" x1="298.97" y1="19.02" x2="300.98" y2="20.85"/><polyline class="cls-10" points="301.65 21.46 302.39 22.14 303.31 21.75"/><line class="cls-12" x1="304.99" y1="21.05" x2="307.5" y2="20.01"/><polyline class="cls-10" points="308.34 19.66 309.26 19.27 310 19.95"/><line class="cls-13" x1="311.34" y1="21.17" x2="313.35" y2="23.01"/><polyline class="cls-10" points="314.02 23.62 314.76 24.3 315.69 23.91"/><line class="cls-14" x1="317.36" y1="23.21" x2="319.88" y2="22.17"/><polyline class="cls-10" points="320.72 21.82 321.64 21.43 321.93 21.7"/><polygon class="cls-2" points="327.15 26.45 316.72 23.86 321.02 21.97 321.52 17.3 327.15 26.45"/></svg>