<svg id="Layer_1" data-name="Layer 1" xmlns="http://www.w3.org/2000/svg" xmlns:xlink="http://www.w3.org/1999/xlink" width="594.35" height="147.39" viewBox="0 0 594.35 147.39"><defs><style>.cls-1,.cls-10,.cls-11,.cls-12,.cls-14,.cls-4,.cls-5,.cls-8,.cls-9{fill:none;}.cls-1{stroke:#aadcd9;}.cls-1,.cls-14,.cls-4,.cls-5{stroke-width:2px;}.cls-2{fill:#282828;}.cls-3,.cls-7{font-size:18px;font-family:xkcdScript, xkcd Script;}.cls-3{fill:#fff;}.cls-4{stroke:#f598a2;}.cls-5{stroke:url(#New_Gradient_Swatch);}.cls-6{fill:#e6e7e8;}.cls-13,.cls-7{fill:#231f20;}.cls-10,.cls-11,.cls-12,.cls-14,.cls-8,.cls-9{stroke:#231f20;}.cls-9{stroke-dasharray:1.82 1.82;}.cls-10{stroke-dasharray:1.81 1.81;}.cls-11{stroke-dasharray:1.82 1.82;}.cls-12{stroke-dasharray:1.82 1.82;}</style><linearGradient id="New_Gradient_Swatch" x1="154.22" y1="103.12" x2="279.86" y2="103.12" gradientUnits="userSpaceOnUse"><stop offset="0.49" stop-color="#f598a2"/><stop offset="0.5" stop-color="#abddda"/></linearGradient></defs><polygon class="cls-1" points="12.55 45.87 19.49 46.18 26.56 46.4 33.63 45.92 40.69 46.44 47.76 45.87 54.82 45.81 61.89 46.12 68.96 45.51 76.03 45.6 83.09 46.35 90.16 45.49 97.23 45.5 104.3 46.26 111.37 46.25 118.44 45.97 125.51 45.69 132.58 46.21 139.65 46.14 146.72 46.24 153.79 46.33 160.86 46.47 167.93 45.49 175 45.74 182.08 45.63 189.01 45.84 189.43 38.37 189.16 30.76 189.4 23.15 189 15.68 182.1 15.61 175.03 15.4 167.96 15.63 160.9 15.67 153.83 15.77 146.76 15.59 139.7 15.24 132.63 15.78 125.56 15.98 118.5 15.22 111.43 15.19 104.36 15.08 97.29 15.28 90.22 15.25 83.15 15.51 76.08 15.93 69.01 15.43 61.94 15.75 54.87 15.24 47.8 15.59 40.73 15.78 33.66 15.38 26.59 15.72 19.51 15.71 12.67 15.76 11.97 23.15 12.08 30.75 12.92 38.36 12.55 45.87"/><polygon class="cls-2" points="14.51 43.89 21.62 44.1 28.82 44.02 36.01 44.2 43.2 43.74 50.4 43.72 57.59 44.01 64.79 44.48 71.98 44.41 79.18 43.92 86.38 43.84 93.57 44.47 100.77 44.41 107.97 43.84 115.17 43.48 122.36 43.67 129.56 43.88 136.76 43.62 143.95 43.98 151.15 43.64 158.35 44.2 165.54 44.26 172.75 44.19 179.95 43.65 187.41 44.25 186.81 37.37 187.44 30.77 187.35 24.15 187.12 17.58 179.97 17.96 172.77 17.56 165.58 17.51 158.38 17.65 151.19 17.26 144 17.41 136.8 17.55 129.6 17.66 122.41 17.41 115.21 17.28 108.02 17.72 100.82 17.32 93.62 17.6 86.42 17.57 79.22 17.08 72.03 17.08 64.83 17.87 57.64 17.7 50.44 17.33 43.24 17.12 36.04 17.6 28.84 17.08 21.64 17.65 14.54 17.66 14.28 24.14 14.89 30.75 14.81 37.36 14.51 43.89"/><text class="cls-3" transform="translate(17.43 35.3)">Latent gene variables</text><polygon class="cls-4" points="215.72 45.78 222.74 45.53 229.96 45.87 237.17 45.95 244.39 46.44 251.61 46.47 258.82 46.12 266.05 45.83 273.26 46.23 280.48 45.91 287.7 46.41 294.92 45.94 302.14 46.11 309.36 45.97 316.58 45.84 323.8 46.01 331.02 46.16 338.25 45.94 345.47 45.98 352.69 45.75 359.91 45.48 367.13 45.95 374.35 46.08 381.58 45.68 388.8 45.89 396.02 46.28 403.25 46.21 410.58 46.07 410.31 38.37 410.03 30.76 410.18 23.15 410.52 15.51 403.27 15.33 396.05 15.36 388.83 15.21 381.62 15.28 374.4 15.41 367.18 15.89 359.96 15.61 352.74 15.87 345.52 15.65 338.31 15.04 331.08 15.95 323.87 15.55 316.64 15.32 309.42 15.74 302.2 15.52 294.98 15.76 287.76 15.18 280.54 15.27 273.32 15.75 266.1 15.38 258.87 15.81 251.65 15.23 244.43 15.11 237.21 15.64 229.98 15.56 222.75 16.01 215.22 15.25 215.03 23.15 215.6 30.75 215.73 38.36 215.72 45.78"/><polygon class="cls-2" points="217.62 43.87 224.59 44.01 231.66 44.16 238.73 43.94 245.8 43.98 252.87 43.75 259.94 43.48 267.01 43.95 274.08 44.08 281.15 43.68 288.22 43.89 295.29 44.28 302.36 44.21 309.44 44.11 316.51 43.81 323.58 43.52 330.65 43.67 337.73 44.02 344.8 44.18 351.87 44.16 358.95 44.3 366.02 44.24 373.09 44.1 380.17 43.62 387.24 43.91 394.32 43.64 401.4 43.87 408.82 44.34 408.07 37.37 408.47 30.77 408.7 24.15 408.35 17.68 401.41 17.52 394.34 17.76 387.28 17.18 380.21 17.27 373.14 17.75 366.07 17.38 359 17.81 351.93 17.23 344.86 17.11 337.79 17.64 330.71 17.56 323.64 18.01 316.57 17.13 309.5 17.05 302.42 17.61 295.35 17.74 288.28 17.53 281.2 17.73 274.13 17.15 267.06 18.03 259.99 17.75 252.91 17.77 245.84 17.14 238.76 17.45 231.69 17.43 224.6 17.57 217.78 17.82 217.22 24.14 217.45 30.75 217.13 37.37 217.62 43.87"/><text class="cls-3" transform="translate(220.52 35.3)">Latent cellular variables</text><polygon class="cls-5" points="155.65 118.32 162.86 117.86 170.08 118.74 177.3 118.82 184.53 118.25 191.75 118.12 198.98 118.34 206.2 118.13 213.43 118.72 220.65 117.84 227.87 118.12 235.1 118.1 242.32 118.72 249.55 118.42 256.78 118.44 264 118.3 271.24 117.95 278.69 118.54 278.54 110.72 278.86 103.11 278.14 95.5 278.16 88.19 271.24 87.42 264.02 87.6 256.8 87.76 249.57 88.1 242.35 87.77 235.13 87.53 227.9 88.19 220.67 88.1 213.45 87.83 206.23 87.64 199 88.17 191.78 87.86 184.55 87.67 177.32 88.31 170.1 87.73 162.87 88.34 155.82 88.07 155.22 95.5 155.31 103.11 155.67 110.72 155.65 118.32"/><polygon class="cls-6" points="157.56 116.41 164.62 116.3 171.61 115.95 178.6 116.63 185.59 116.4 192.58 116.72 199.56 116 206.56 115.9 213.55 116.8 220.53 116.62 227.52 116.46 234.51 116.12 241.5 116.45 248.49 116.69 255.48 116.03 262.47 116.12 269.47 116.39 276.64 116.51 276.19 109.73 276.49 103.12 276.69 96.5 276.18 90.2 269.48 89.73 262.49 90.34 255.5 90.15 248.51 89.48 241.53 89.57 234.54 89.93 227.55 90.13 220.56 90.35 213.57 90.23 206.58 89.59 199.59 90.06 192.6 89.58 185.61 90.29 178.62 90.33 171.63 90.21 164.63 89.45 157.71 89.97 157.72 96.49 158.09 103.1 157.93 109.72 157.56 116.41"/><text class="cls-7" transform="translate(160.63 107.65)">Transcriptome</text><text class="cls-7" transform="translate(449.31 26.93)">- Differentiation<tspan x="0" y="21.6">- Cell cycle</tspan><tspan x="0" y="43.2">- Cell type</tspan><tspan x="0" y="64.8">- Zonation</tspan><tspan x="0" y="86.4">- Cell state</tspan><tspan x="0" y="108">...</tspan></text><line class="cls-8" x1="412.03" y1="30.63" x2="412.77" y2="31.31"/><line class="cls-9" x1="414.11" y1="32.53" x2="416.12" y2="34.36"/><polyline class="cls-8" points="416.79 34.98 417.53 35.65 418.45 35.27"/><line class="cls-10" x1="420.13" y1="34.57" x2="422.64" y2="33.52"/><polyline class="cls-8" points="423.47 33.17 424.4 32.79 425.14 33.46"/><line class="cls-11" x1="426.48" y1="34.69" x2="428.49" y2="36.52"/><polyline class="cls-8" points="429.16 37.13 429.9 37.81 430.82 37.42"/><line class="cls-12" x1="432.5" y1="36.73" x2="435.02" y2="35.68"/><polyline class="cls-8" points="435.85 35.33 436.78 34.95 437.07 35.21"/><polygon class="cls-13" points="442.28 39.97 431.85 37.38 436.16 35.49 436.65 30.81 442.28 39.97"/><polyline class="cls-14" points="88.92 45.02 106.86 61.63 133.78 63.14 159.47 71.11 186.41 72.08 194.22 78.48"/><polygon class="cls-13" points="205.14 87.43 184.6 81.11 193.4 77.81 194.9 68.53 205.14 87.43"/><polyline class="cls-14" points="319.6 47.1 298.32 47.31 279.09 56.46 257.98 59.48 241.29 72.55 236.55 77.36"/><polygon class="cls-13" points="226.63 87.41 234.81 67.53 237.29 76.6 246.39 78.95 226.63 87.41"/></svg>