<svg id="Layer_1" data-name="Layer 1" xmlns="http://www.w3.org/2000/svg" xmlns:xlink="http://www.w3.org/1999/xlink" width="410.36" height="116.33" viewBox="0 0 410.36 116.33"><defs><style>.cls-1,.cls-3,.cls-6,.cls-9{fill:none;stroke-width:2px;}.cls-1{stroke:#231f20;}.cls-2,.cls-8{fill:#231f20;}.cls-3{stroke:#aadcd9;}.cls-4{fill:#282828;}.cls-5,.cls-8{font-size:18px;font-family:xkcdScript, xkcd Script;}.cls-10,.cls-5{fill:#fff;}.cls-6{stroke:url(#New_Gradient_Swatch);}.cls-7{fill:#e6e7e8;}.cls-9{stroke:#f598a2;}</style><linearGradient id="New_Gradient_Swatch" x1="134.93" y1="90.77" x2="260.57" y2="90.77" gradientUnits="userSpaceOnUse"><stop offset="0.49" stop-color="#f598a2"/><stop offset="0.5" stop-color="#abddda"/></linearGradient></defs><polyline class="cls-1" points="73.24 32.25 91.17 48.86 118.09 50.38 143.78 58.34 170.72 59.32 178.53 65.71"/><polygon class="cls-2" points="189.45 74.66 168.91 68.34 177.71 65.04 179.21 55.76 189.45 74.66"/><polyline class="cls-1" points="303.92 34.33 282.64 34.54 263.4 43.69 242.29 46.71 225.6 59.78 220.86 64.59"/><polygon class="cls-2" points="210.94 74.64 219.13 54.77 221.6 63.84 230.7 66.18 210.94 74.64"/><polygon class="cls-3" points="11.69 33.51 18.64 33.83 25.7 34.04 32.77 33.56 39.83 34.08 46.9 33.51 53.97 33.45 61.03 33.77 68.1 33.16 75.17 33.24 82.24 34 89.31 33.14 96.38 33.14 103.44 33.9 110.51 33.9 117.58 33.61 124.66 33.33 131.72 33.86 138.79 33.78 145.86 33.89 152.93 33.97 160 34.11 167.07 33.14 174.14 33.38 181.22 33.28 188.15 33.48 188.58 26.01 188.31 18.41 188.54 10.79 188.15 3.33 181.24 3.25 174.17 3.05 167.1 3.28 160.04 3.31 152.97 3.41 145.91 3.23 138.84 2.89 131.77 3.42 124.7 3.62 117.64 2.87 110.57 2.83 103.5 2.73 96.43 2.92 89.36 2.89 82.29 3.15 75.22 3.58 68.15 3.08 61.08 3.39 54.01 2.89 46.94 3.23 39.87 3.42 32.8 3.03 25.73 3.36 18.65 3.35 11.81 3.4 11.11 10.79 11.22 18.4 12.06 26.01 11.69 33.51"/><polygon class="cls-4" points="13.65 31.54 20.76 31.74 27.96 31.67 35.15 31.84 42.35 31.39 49.54 31.36 56.73 31.65 63.93 32.12 71.13 32.06 78.32 31.57 85.52 31.48 92.72 32.12 99.91 32.06 107.11 31.48 114.31 31.13 121.51 31.32 128.7 31.52 135.9 31.26 143.09 31.63 150.29 31.29 157.49 31.84 164.69 31.9 171.89 31.83 179.09 31.29 186.55 31.89 185.96 25.02 186.58 18.41 186.49 11.8 186.26 5.22 179.11 5.61 171.91 5.2 164.72 5.15 157.53 5.29 150.33 4.91 143.14 5.06 135.94 5.19 128.75 5.3 121.55 5.05 114.36 4.92 107.16 5.36 99.96 4.96 92.76 5.25 85.56 5.21 78.37 4.73 71.17 4.72 63.98 5.51 56.78 5.34 49.58 4.98 42.38 4.76 35.19 5.24 27.98 4.72 20.78 5.29 13.69 5.31 13.43 11.79 14.04 18.39 13.95 25 13.65 31.54"/><text class="cls-5" transform="translate(16.57 22.94)">Latent gene variables</text><polygon class="cls-6" points="136.36 105.96 143.57 105.5 150.79 106.39 158.01 106.47 165.24 105.9 172.46 105.77 179.69 105.98 186.91 105.78 194.14 106.36 201.36 105.49 208.58 105.77 215.81 105.74 223.03 106.37 230.26 106.07 237.49 106.08 244.72 105.94 251.95 105.59 259.4 106.18 259.25 98.36 259.57 90.76 258.85 83.15 258.87 75.83 251.96 75.06 244.73 75.25 237.51 75.41 230.28 75.75 223.06 75.42 215.84 75.17 208.61 75.83 201.38 75.74 194.16 75.47 186.94 75.28 179.71 75.81 172.49 75.51 165.26 75.31 158.03 75.96 150.81 75.38 143.57 75.98 136.53 75.71 135.93 83.14 136.02 90.75 136.38 98.36 136.36 105.96"/><polygon class="cls-7" points="138.27 104.05 145.33 103.94 152.32 103.59 159.31 104.28 166.3 104.05 173.29 104.37 180.28 103.65 187.26 103.55 194.26 104.44 201.24 104.26 208.23 104.1 215.22 103.77 222.21 104.09 229.2 104.34 236.19 103.68 243.18 103.77 250.18 104.04 257.35 104.16 256.9 97.37 257.2 90.76 257.4 84.15 256.89 77.84 250.19 77.38 243.2 77.98 236.21 77.79 229.22 77.12 222.24 77.22 215.25 77.57 208.26 77.77 201.27 78 194.28 77.87 187.29 77.24 180.3 77.7 173.31 77.23 166.32 77.94 159.33 77.98 152.34 77.86 145.34 77.09 138.41 77.61 138.43 84.14 138.8 90.75 138.64 97.36 138.27 104.05"/><text class="cls-8" transform="translate(141.34 95.3)">Transcriptome</text><polygon class="cls-9" points="210.06 33.3 217.43 32.68 224.61 32.93 231.79 33.53 238.98 32.84 246.16 32.84 253.35 33.04 260.53 32.94 267.72 33.51 274.91 32.75 282.09 33.08 289.28 32.74 296.47 33.6 303.66 33.15 310.85 33.54 318.04 32.69 325.22 33.19 332.41 33.2 339.6 32.77 346.79 33.05 353.98 32.9 361.17 33.36 368.36 33 375.54 33.38 382.74 33.36 389.94 32.78 397.22 33.21 397.05 25.76 397.62 18.41 396.8 11.04 396.99 3.82 389.95 4.08 382.76 3.94 375.58 4 368.39 3.48 361.21 4.02 354.02 3.27 346.84 3.93 339.65 4.1 332.47 3.91 325.28 3.75 318.09 3.4 310.9 3.56 303.71 3.2 296.52 3.33 289.34 3.61 282.15 3.32 274.96 3.35 267.77 3.56 260.58 3.56 253.39 3.24 246.21 3.6 239.01 3.64 231.83 4.02 224.63 3.87 217.44 4.1 210.29 3.73 209.84 11.04 210.58 18.4 210.18 25.76 210.06 33.3"/><polygon class="cls-10" points="211.45 31.93 218.81 31.19 225.88 31.69 232.94 31.7 240.02 31.27 247.09 31.55 254.16 31.4 261.23 31.86 268.3 31.5 275.37 31.88 282.44 31.86 289.51 31.28 296.58 31.75 303.66 31.54 310.73 32.11 317.8 31.29 324.88 31.42 331.95 31.22 339.02 31.36 346.1 31.3 353.17 31.82 360.24 31.29 367.32 32.03 374.39 31.38 381.47 31.2 388.55 31.39 395.59 31.57 395.92 25.02 395.75 18.41 396.12 11.8 395.88 4.92 388.56 5.11 381.5 4.82 374.43 4.85 367.36 5.06 360.29 5.05 353.21 4.74 346.14 5.1 339.07 5.14 332 5.52 324.93 5.37 317.86 5.6 310.79 5.25 303.71 4.78 296.64 5.52 289.57 5.12 282.49 5.33 275.42 5.39 268.35 5.45 261.27 4.98 254.2 4.7 247.13 4.92 240.05 5.38 232.98 5.38 225.9 4.68 218.82 5.16 212.05 5.52 211.33 11.79 212.22 18.39 212.11 25.02 211.45 31.93"/><text class="cls-8" transform="translate(214.74 22.94)">Known cellular variables</text></svg>