<svg id="Layer_1" data-name="Layer 1" xmlns="http://www.w3.org/2000/svg" xmlns:xlink="http://www.w3.org/1999/xlink" width="296.94" height="116.33" viewBox="0 0 296.94 116.33"><defs><style>.cls-1,.cls-3,.cls-6,.cls-9{fill:none;stroke-width:2px;}.cls-1{stroke:#231f20;}.cls-2,.cls-8{fill:#231f20;}.cls-3{stroke:#aadcd9;}.cls-4{fill:#282828;}.cls-5,.cls-8{font-size:12px;font-family:xkcdScript, xkcd Script;}.cls-10,.cls-5{fill:#fff;}.cls-6{stroke:url(#New_Gradient_Swatch);}.cls-7{fill:#e6e7e8;}.cls-9{stroke:#f598a2;}</style><linearGradient id="New_Gradient_Swatch" x1="104.21" y1="92.28" x2="192.09" y2="92.28" gradientUnits="userSpaceOnUse"><stop offset="0.49" stop-color="#f598a2"/><stop offset="0.5" stop-color="#abddda"/></linearGradient></defs><polyline class="cls-1" points="72.36 30.7 83.78 43.3 99.7 49.29 111.12 61.89 127.04 67.88 128.99 70.03"/><polygon class="cls-2" points="138.47 80.49 119.08 71.21 128.28 69.24 131.13 60.29 138.47 80.49"/><polyline class="cls-1" points="229.67 34.01 213.76 39.99 202.34 52.6 186.42 58.58 174.99 71.19 172.28 72.21"/><polygon class="cls-2" points="159.07 77.18 174.83 62.56 173.27 71.84 180.55 77.78 159.07 77.18"/><polygon class="cls-3" points="11.69 31.62 18.7 31.93 25.82 32.15 32.95 31.67 40.07 32.19 47.2 31.62 54.32 31.56 61.45 31.88 68.58 31.27 75.7 31.35 82.82 32.11 89.95 31.24 97.07 31.25 104.2 32.01 111.33 32 118.45 31.72 125.59 31.44 132.9 31.89 132.89 23.86 132.99 15.98 132.98 7.87 125.6 7.61 118.48 8.59 111.35 8.34 104.22 8.45 97.1 8.31 89.97 7.83 82.85 8.1 75.72 7.86 68.6 8.31 61.47 8.18 54.35 7.97 47.22 8.2 40.09 8.23 32.97 8.33 25.84 8.16 18.71 7.81 11.75 8.27 12.01 15.97 11.26 23.85 11.69 31.62"/><polygon class="cls-4" points="13.65 29.64 20.89 29.85 28.21 29.78 35.53 29.95 42.85 29.5 50.17 29.47 57.49 29.76 64.82 30.23 72.13 30.17 79.45 29.67 86.78 29.59 94.1 30.23 101.42 30.17 108.75 29.59 116.07 29.24 123.4 29.42 130.66 29.65 130.36 23.19 130.73 16.65 130.5 10.35 123.41 9.88 116.09 9.82 108.76 9.89 101.44 10.44 94.12 9.74 86.8 10.45 79.48 9.82 72.16 9.91 64.84 10.16 57.52 10.53 50.2 10.12 42.88 10.07 35.55 10.21 28.23 9.83 20.9 9.98 13.58 10.11 13.69 16.64 13.45 23.19 13.65 29.64"/><text class="cls-5" transform="translate(16.57 22.94)">Latent gene variables</text><polygon class="cls-6" points="105.56 104.07 112.65 103.61 119.75 104.5 126.85 104.58 133.95 104.01 141.05 103.88 148.15 104.09 155.25 103.89 162.35 104.47 169.45 103.59 176.56 103.87 183.67 103.85 191.07 104.35 190.87 96.21 190.88 88.33 190.75 80.48 183.68 80.84 176.57 80.15 169.47 80.38 162.38 80.06 155.28 80.78 148.18 80.89 141.07 79.98 133.97 80.17 126.88 80.33 119.77 80.67 112.66 80.34 105.28 80.21 105.85 88.33 105.76 96.2 105.56 104.07"/><polygon class="cls-7" points="107.48 102.16 114.93 102.05 122.32 101.7 129.7 102.39 137.08 102.16 144.46 102.48 151.84 101.76 159.23 101.65 166.61 102.55 174 102.37 181.39 102.21 188.64 101.92 188.89 95.54 189.14 89 188.58 82.68 181.39 82.66 174.01 82.39 166.63 82.2 159.25 82.73 151.87 82.43 144.48 82.23 137.1 82.88 129.71 82.3 122.33 82.9 114.94 82.71 107.28 82.15 107.23 89 107.59 95.54 107.48 102.16"/><text class="cls-8" transform="translate(110.55 95.3)">Transcriptome</text><polygon class="cls-9" points="163.16 31.4 170.43 30.79 177.52 31.04 184.6 31.63 191.69 30.95 198.78 30.95 205.87 31.15 212.96 31.04 220.04 31.62 227.13 30.86 234.22 31.19 241.31 30.84 248.39 31.7 255.48 31.25 262.57 31.64 269.66 30.8 276.75 31.3 283.85 31.3 290.69 30.99 290.87 23.69 290.72 16.15 291.12 8.44 283.86 8.72 276.77 8.35 269.69 8.37 262.6 8.95 255.51 8.48 248.42 8.68 241.33 8.12 234.25 8.93 227.16 8.8 220.07 9 212.98 8.86 205.9 8.93 198.81 8.41 191.72 8.94 184.63 8.2 177.54 8.85 170.44 9.02 163.51 8.76 163.41 16.14 163.06 23.68 163.16 31.4"/><polygon class="cls-10" points="164.57 30.04 172.17 29.3 179.5 29.8 186.83 29.8 194.16 29.38 201.48 29.66 208.81 29.51 216.14 29.97 223.47 29.61 230.79 29.98 238.12 29.97 245.45 29.38 252.78 29.86 260.11 29.65 267.44 30.22 274.77 29.4 282.11 29.53 289.18 29.43 289.18 23.19 289.12 16.65 289.57 9.96 282.12 10.44 274.79 9.7 267.46 10.35 260.13 10.52 252.81 10.33 245.48 10.17 238.15 9.82 230.82 9.98 223.49 9.62 216.17 9.75 208.84 10.03 201.51 9.74 194.18 9.77 186.85 9.98 179.52 9.98 172.18 9.66 164.79 10.04 164.8 16.64 165.18 23.19 164.57 30.04"/><text class="cls-8" transform="translate(167.85 22.94)">Known cellular variables</text></svg>