<?xml version="1.0" encoding="utf-8"?>
<!-- Generator: Adobe Illustrator 25.2.1, SVG Export Plug-In . SVG Version: 6.00 Build 0)  -->
<svg version="1.1" id="Layer_1" xmlns="http://www.w3.org/2000/svg" xmlns:xlink="http://www.w3.org/1999/xlink" x="0px" y="0px"
	 viewBox="0 0 311.7 143.54" style="enable-background:new 0 0 311.7 143.54;" xml:space="preserve">
<style type="text/css">
	.Graphic_x0020_Style_x0020_2{fill:#282828;}
	.Graphic_x0020_Style_x0020_38{fill:#E6E7E8;}
	.st0{fill:none;stroke:url(#SVGID_1_);stroke-width:2;}
	.st1{font-family:'ArialMT';}
	.st2{font-size:12px;}
	.st3{fill:none;stroke:#AADCD9;stroke-width:2;}
	.st4{fill:#FFFFFF;}
	.st5{fill:none;stroke:#F598A2;stroke-width:2;}
	.st6{fill:none;stroke:#000000;stroke-width:2;}
</style>
<g>
	<linearGradient id="SVGID_1_" gradientUnits="userSpaceOnUse" x1="116.2655" y1="116.3826" x2="195.0292" y2="116.3826">
		<stop  offset="0.495" style="stop-color:#F598A2"/>
		<stop  offset="0.5" style="stop-color:#ABDDDA"/>
	</linearGradient>
	<rect x="111.28" y="104.61" class="st0" width="86.69" height="24.19"/>
	<rect x="113.28" y="106.61" class="Graphic_x0020_Style_x0020_38" width="82.69" height="20.19"/>
	<text transform="matrix(1 0 0 1 116.2774 119.9044)" class="st1 st2">Transcriptome</text>
</g>
<g>
	<rect x="8.75" y="17.53" class="st3" width="134.72" height="38.59"/>
	<rect x="10.75" y="19.53" class="Graphic_x0020_Style_x0020_2" width="130.72" height="34.59"/>
	<text transform="matrix(1 0 0 1 13.748 32.8263)"><tspan x="0" y="0" class="st4 st1 st2">Gene-specific variables</tspan><tspan x="11.33" y="14.4" class="st4 st1 st2">e.g. fold change, ...</tspan></text>
</g>
<g class="Graphic_x0020_Style_x0020_6">
	<rect x="160.05" y="32.43" class="st5" width="146.39" height="23.19"/>
	<rect x="161.55" y="33.93" class="st4" width="143.39" height="20.19"/>
	<text transform="matrix(1 0 0 1 164.5482 47.2262)" class="Graphic_x0020_Style_x0020_6 st1 st2">Known cellular variable(s)</text>
</g>
<g>
	<g>
		<line class="st6" x1="71.24" y1="56.96" x2="127.92" y2="95.5"/>
		<g>
			<polygon points="139.59,103.44 118.57,98.98 127.04,94.91 127.71,85.53 			"/>
		</g>
	</g>
</g>
<g>
	<g>
		<line class="st6" x1="234.44" y1="56.96" x2="177.77" y2="95.5"/>
		<g>
			<polygon points="166.09,103.44 177.97,85.53 178.64,94.91 187.11,98.98 			"/>
		</g>
	</g>
</g>
</svg>
